<svg id="Слой_1" data-name="Слой 1" xmlns="http://www.w3.org/2000/svg" width="266.79" height="82.08" viewBox="0 0 266.79 82.08"><defs><style>.cls-1{fill:#261f0f}.cls-2{fill:#00adff}</style></defs><path class="cls-1" d="M109.35 30.82a9.09 9.09 0 01-3.2 4.23 8.4 8.4 0 01-5 1.55 9 9 0 01-8.39-5.53 9.14 9.14 0 01-.7-3.58 8.61 8.61 0 012.62-6.38 9.24 9.24 0 0111.56-1 8.25 8.25 0 013.12 4.3h-3.82a4.92 4.92 0 00-4.5-2.66 5.09 5.09 0 00-3.9 1.69 5.75 5.75 0 00-1.56 4 6.19 6.19 0 00.86 3.21 5.53 5.53 0 002.4 2.2 4.9 4.9 0 002.22.51 4.76 4.76 0 004.42-2.56zm19.74 5.44h-3.77l-1.38-3.77h-6.45l-1.4 3.77h-3.72l6.89-17.4h3l6.86 17.4zm-6.19-6.72l-2.15-6.4-2.2 6.4zm22.37 6.72h-4.11l-4.88-7.08v7.08h-3.43v-17.4h5.9a6.78 6.78 0 014.57 1.45 5.48 5.48 0 011.76 4.35 5.31 5.31 0 01-1.31 3.59 4.85 4.85 0 01-3.34 1.7l4.83 6.31zm-3.55-11.48a2.44 2.44 0 00-1.14-2.25A4.88 4.88 0 00138 22h-1.74v5.41H138a5.75 5.75 0 002.63-.44 2.25 2.25 0 001.06-2.18zM178 18.86v17.4h-3.36v-9.72q0-.58.07-1.75t.07-1.75l-4.64 13.22h-2.37L163.07 23q0 .58.07 1.75t.07 1.75v9.72h-3.36V18.86h4.84l4.25 12.62 4.25-12.62zm20.45 17.4h-3.77l-1.38-3.77h-6.45l-1.4 3.77h-3.72l6.89-17.4h3l6.86 17.4zm-6.19-6.72l-2.15-6.4-2.2 6.4zm22.37 6.72h-4.11l-4.88-7.08v7.08h-3.43v-17.4h5.9a6.78 6.78 0 014.57 1.45 5.48 5.48 0 011.76 4.35 5.31 5.31 0 01-1.31 3.59A4.86 4.86 0 01209.8 30l4.83 6.31zm-3.55-11.48a2.44 2.44 0 00-1.14-2.25 4.88 4.88 0 00-2.56-.56h-1.74v5.41h1.74A5.75 5.75 0 00210 27a2.25 2.25 0 001.06-2.18z" transform="translate(.03 -.67)"/><path class="cls-1" d="M232.68 18.19l-6.37 8.65 6.45 8.75h-4.18L223 27.45v8.14h-3.49v-17.4H223v8.22l5.82-8.22h3.86zm13.39 17.4h-9.36v-17.4h9.36v3.09h-5.88v3.94H246v3.12h-5.81v4.08h5.88v3.17zm14.44-14.28h-3.43v14.28h-3.5V21.31h-3.44v-3.12h10.37v3.12zm6.28 14.28h-3.21v-3.48h3.21v3.48z"/><path class="cls-2" d="M102.18 63.41h-9.35v-17.4h9.35v3.09h-5.87v3.94h5.8v3.12h-5.8v4.08h5.87v3.17zm19.81 0H118l-4.01-6.48-3.96 6.48h-3.94l5.94-9.04-5.51-8.36h3.99l3.57 5.85 3.49-5.85h4.01l-5.49 8.41 5.9 8.99z"/><path class="cls-2" d="M126 64.08v-17.4h5.24q6.6 0 6.6 5.37a5.46 5.46 0 01-1.74 4.45 6.67 6.67 0 01-4.45 1.35h-2.18v6.24zm3.48-14.31v5h1.79a4.54 4.54 0 002.3-.44 2.65 2.65 0 000-4 4.06 4.06 0 00-2.22-.51z" transform="translate(.03 -.67)"/><path class="cls-2" d="M151.63 63.41h-9.36v-17.4h9.36v3.09h-5.88v3.94h5.8v3.12h-5.8v4.08h5.88v3.17z"/><path class="cls-2" d="M169.37 64.08h-4.11L160.38 57v7.08H157v-17.4h5.9a6.78 6.78 0 014.57 1.45 5.48 5.48 0 011.76 4.35 5.31 5.31 0 01-1.31 3.59 4.86 4.86 0 01-3.34 1.7l4.83 6.31zm-3.55-11.48a2.44 2.44 0 00-1.14-2.25 4.88 4.88 0 00-2.56-.56h-1.74v5.41h1.74a5.75 5.75 0 002.63-.44 2.25 2.25 0 001.06-2.18z" transform="translate(.03 -.67)"/><path class="cls-2" d="M182.84 49.13h-3.44v14.28h-3.5V49.13h-3.43v-3.12h10.37v3.12z"/><path d="M61.66 27.78a24.91 24.91 0 01.15 27.63L41 41.71l20.66-13.93z" transform="translate(.03 -.67)" fill-rule="evenodd" fill="#00adff"/><path d="M41 .67a41 41 0 0134 18.09l-13.37 9a24.91 24.91 0 10.15 27.63l13.47 8.87A41 41 0 1141 .67z" transform="translate(.03 -.67)" fill-rule="evenodd" fill="#261f0f"/><path class="cls-1" d="M194 49.66a3.24 3.24 0 01-.86 2.43 3.42 3.42 0 01-2.49.84h-1.78v-6.42h2a2.88 2.88 0 013.13 3.15zm-.79 0a2.59 2.59 0 00-.63-1.89 2.53 2.53 0 00-1.87-.64h-1.09v5.13h.91a2.77 2.77 0 002-.66 2.6 2.6 0 00.63-1.91zm6.03 3.27l-.8-2h-2.58l-.79 2h-.76l2.54-6.45h.63l2.52 6.45zm-1-2.72l-.75-2q-.15-.38-.3-.93a8.33 8.33 0 01-.28.93l-.76 2zm4.01 2.72h-.75v-5.76h-2v-.66h4.82v.66h-2zm6.41 0l-.8-2h-2.58l-.79 2h-.76l2.54-6.45h.63l2.53 6.45zm-1-2.72l-.75-2q-.15-.38-.3-.93a8.33 8.33 0 01-.28.93l-.76 2zm5.5 2.72L211 47.24q.06.68.06 1.61v4.09h-.69v-6.43h1.13l2 5.3 2.05-5.3h1.12v6.42h-.75V48.8q0-.71.06-1.55l-2.2 5.69zm5.28 0v-6.42h.75v6.42zm7.56 0h-.85l-3.51-5.39q.07.95.07 1.74v3.65H221v-6.42h.84l3.5 5.37v-5.37h.7zm1.74 0v-6.42h.75v6.42zm7.53 0h-.85l-3.51-5.39q.07.95.07 1.74v3.65h-.69v-6.42h.84l3.5 5.37v-5.37h.7zm4.59-3.36H242v3.12a7 7 0 01-1 .25 7.89 7.89 0 01-1.22.08 3 3 0 01-2.27-.87 3.42 3.42 0 01-.81-2.43 3.68 3.68 0 01.4-1.76 2.72 2.72 0 011.16-1.15 3.75 3.75 0 011.77-.4 4.84 4.84 0 011.92.38l-.29.66a4.28 4.28 0 00-1.67-.37 2.4 2.4 0 00-1.83.7 2.71 2.71 0 00-.66 1.94 2.77 2.77 0 00.64 2 2.44 2.44 0 001.87.67 5.55 5.55 0 001.31-.15v-2h-1.44zm-46.96 9.95a1.8 1.8 0 01-.67 1.5 3 3 0 01-1.9.52h-.76v2.53h-.75v-6.42h1.67q2.41 0 2.41 1.87zm-3.33 1.38h.67a2.5 2.5 0 001.44-.32 1.18 1.18 0 00.44-1 1.11 1.11 0 00-.42-.95 2.18 2.18 0 00-1.3-.31h-.83zm4.67 3.18v-6.43h.76v5.75h2.83v.68zm8.76 0l-.8-2h-2.58l-.79 2H198l2.54-6.45h.63l2.53 6.45zm-1-2.72l-.75-2q-.15-.38-.3-.93a8.33 8.33 0 01-.28.93l-.76 2zm4 2.72h-.75v-5.76h-2v-.66H208v.66h-2zm3.71 0H209v-6.43h3.58v.66h-2.83v2.35h2.66v.66h-2.66zm9.47-3.22a3.54 3.54 0 01-.78 2.43 2.74 2.74 0 01-2.17.88 2.78 2.78 0 01-2.23-.87 3.57 3.57 0 01-.77-2.45 3.52 3.52 0 01.77-2.43 2.8 2.8 0 012.2-.86 2.74 2.74 0 012.16.88 3.53 3.53 0 01.82 2.42zm-5.12 0a3 3 0 00.56 2 2.27 2.27 0 003.23 0 3.85 3.85 0 000-3.95 1.94 1.94 0 00-1.61-.67 2 2 0 00-1.62.67 3 3 0 00-.56 1.95zm7.3.55v2.67h-.75v-6.43h1.76a2.77 2.77 0 011.75.45 1.64 1.64 0 01.56 1.36 1.71 1.71 0 01-1.29 1.72l1.74 2.89h-.88l-1.56-2.67zm0-.64h1a1.77 1.77 0 001.16-.31 1.17 1.17 0 00.37-.94 1.07 1.07 0 00-.38-.92 2 2 0 00-1.21-.28h-1zm7.64 3.31l-2.18-5.7q.06.68.06 1.61v4.09h-.69v-6.43h1.13l2 5.3 2.05-5.3h1.12v6.42h-.75v-4.13q0-.71.06-1.55l-2.2 5.69z" transform="translate(.03 -.67)"/></svg>